<svg xmlns="http://www.w3.org/2000/svg" width="128" height="128" viewBox="0 0 128 128"><rect width="128" height="128" rx="26" fill="#0d1117"/><rect x="1" y="1" width="126" height="126" rx="25" fill="none" stroke="#30363d" stroke-width="2"/><g fill="none" stroke="#e6edf3" stroke-width="6" stroke-linecap="round" stroke-linejoin="round"><circle cx="51" cy="42" r="15"/><path d="M23 91v-9a24 24 0 0 1 24-24h8a24 24 0 0 1 24 24v9zM82 29a15 15 0 0 1 0 27M86 65a24 24 0 0 1 18 23v3"/></g><circle cx="98" cy="99" r="21" fill="#238636" stroke="#0d1117" stroke-width="5"/><path d="m89 99 6 6 12-13" fill="none" stroke="#fff" stroke-width="4" stroke-linecap="round" stroke-linejoin="round"/></svg>
